<svg id="Layer_1" data-name="Layer 1" xmlns="http://www.w3.org/2000/svg" viewBox="0 0 200 283.3"><defs><style>.cls-1{fill:#1e6fb6;}.cls-2{fill:#fff;}</style></defs><path class="cls-1" d="M31.2-.1H168.8A31.24,31.24,0,0,1,200,31.1V252a31.24,31.24,0,0,1-31.2,31.2H31.2A31.11,31.11,0,0,1,0,252V31.1A31.24,31.24,0,0,1,31.2-.1Z"/><path class="cls-2" d="M39.7,176.3a3,3,0,0,0-.2-1c-.1-.3-.1-.7-.2-.9a6.37,6.37,0,0,0-.2-.7c0-.2-.1-.3-.1-.4l-2.6.8a1.09,1.09,0,0,0,.1.5,2.54,2.54,0,0,0,.2.7c.1.3.1.5.2.8a2.49,2.49,0,0,1,.1.8c0,.3.1.5.1.8v.6a2.92,2.92,0,0,1-.2.9,1.21,1.21,0,0,1-.5.5.76.76,0,0,1-.5.2H33a7.57,7.57,0,0,1-1.5-.1,1.23,1.23,0,0,1-.8-.4,1.14,1.14,0,0,1-.3-.8c0-.5-.1-1-.1-1.4V166.6H27.5v10.6a9.15,9.15,0,0,0,.1,1.7,3.53,3.53,0,0,0,.3,1.4,2.38,2.38,0,0,0,.6,1.1,3.92,3.92,0,0,0,1,.8,4.19,4.19,0,0,0,1.5.4,9.15,9.15,0,0,0,1.7.1h3a3.65,3.65,0,0,0,1.5-.3,6.38,6.38,0,0,0,1.4-.8,4.48,4.48,0,0,0,1.4-3.4v-.9A1.93,1.93,0,0,1,39.7,176.3Z"/><polygon class="cls-2" points="34.1 186.5 36.2 188.6 38.2 186.6 36.2 184.5 34.1 186.5"/><polygon class="cls-2" points="59.9 174.1 57.8 172 55.8 174.1 57.8 176.1 59.9 174.1"/><path class="cls-2" d="M77.9,174.6a4.43,4.43,0,0,0-1.5-1.2,4.92,4.92,0,0,0-2.1-.4,4.48,4.48,0,0,0-2,.4,3.74,3.74,0,0,0-1.3,1.2,4.81,4.81,0,0,0-.8,1.6,10.93,10.93,0,0,0-.5,1.7,6.89,6.89,0,0,1-.3.8l-.3.6a1.38,1.38,0,0,1-.3.4.76.76,0,0,1-.4.2H66.6a1.75,1.75,0,0,1-1.2-.4,1.61,1.61,0,0,1-.5-1.1v-3.5H62.1v7.5a3.4,3.4,0,0,1-.2,1.4,2.46,2.46,0,0,1-1.8,1.8,4.13,4.13,0,0,1-1.9.2H56a4.92,4.92,0,0,1-2-.5,3,3,0,0,1-1.4-1.3,5,5,0,0,1-.5-1.3,7.72,7.72,0,0,1-.2-1.5,7.8,7.8,0,0,1,.3-2.2c.1-.4.3-.8.4-1.2s.4-.9.7-1.5l-2.5-1.2c-.3.6-.6,1.2-.8,1.7a8.8,8.8,0,0,0-.5,1.5c-.1.5-.2.9-.3,1.4a7.08,7.08,0,0,0-.1,1.4,7.8,7.8,0,0,0,.3,2.2,10.84,10.84,0,0,0,.8,1.9,6.89,6.89,0,0,0,1.1,1.3,7.1,7.1,0,0,0,1.4,1,7.31,7.31,0,0,0,3.3.8h2.3a7.42,7.42,0,0,0,5-1.5,5.92,5.92,0,0,0,1.6-4.7V182a2.35,2.35,0,0,0,.8.2,2.77,2.77,0,0,0,.9.1h1.8a5.07,5.07,0,0,0,1.3-.2,2.84,2.84,0,0,0,1.1-.8l1.2.6c.4.2.7.3,1.1.5l1,.3a3.75,3.75,0,0,0,1.1.1h.7a1.88,1.88,0,0,0,.8-.2,2.18,2.18,0,0,0,.8-.5,3,3,0,0,0,.8-.8,5.78,5.78,0,0,0,.5-1.4,13.55,13.55,0,0,0,.2-2,6.93,6.93,0,0,0-.3-2A7.6,7.6,0,0,0,77.9,174.6Zm-1.4,5h0a2.09,2.09,0,0,1-.4.6.76.76,0,0,1-.5.2h-.3a1.7,1.7,0,0,1-.7-.1c-.3-.1-.5-.2-.8-.3s-.6-.3-.9-.4l-.9-.5c.1-.4.3-.7.4-1.1s.3-.8.4-1.1a4.7,4.7,0,0,1,.6-.9,1.21,1.21,0,0,1,1-.3,2,2,0,0,1,1.1.3,2.34,2.34,0,0,1,.7.7,3.55,3.55,0,0,1,.4.9,1.7,1.7,0,0,1,.1.7A1.91,1.91,0,0,1,76.5,179.6Z"/><rect class="cls-2" x="82.2" y="166.5" width="2.8" height="16.2"/><polygon class="cls-2" points="111 172.1 109.1 170.1 107.2 172.1 109.1 174 111 172.1"/><polygon class="cls-2" points="106.3 172.1 104.4 170.1 102.5 172.1 104.4 174 106.3 172.1"/><polygon class="cls-2" points="127 168.4 125 166.3 122.9 168.4 125 170.4 127 168.4"/><path class="cls-2" d="M134.5,175.8l-1-.4-1.3-.5-1.5-.5-1.6-.5c-.5-.2-1-.3-1.5-.5a10.34,10.34,0,0,0-1.2-.3,2.2,2.2,0,0,0-.8-.1,3.17,3.17,0,0,0-2.3.9,3.92,3.92,0,0,0-.8,1,5,5,0,0,0-.5,1.3l2.6.8a2.19,2.19,0,0,1,.3-.5c.1-.1.2-.3.3-.4a.52.52,0,0,1,.4-.2,4.33,4.33,0,0,1,.5-.1,2,2,0,0,1,.7.1c.3.1.6.1,1,.2l1.2.3,1.2.4,1.2.4,1.1.3c-.6.3-1.3.6-1.9.9s-1.5.5-2.3.8a18.29,18.29,0,0,1-2.5.6,19.53,19.53,0,0,1-2.3.2h-3.8a.6.6,0,0,1-.4-.1.52.52,0,0,1-.4-.2,1.38,1.38,0,0,1-.4-.3,2.19,2.19,0,0,1-.3-.5,1.48,1.48,0,0,1-.1-.7v-3.3H115v3.7a1.14,1.14,0,0,1-.3.8.86.86,0,0,1-.6.3,3.4,3.4,0,0,1-1,.1H100.2a.9.9,0,0,1-.5-.1c-.2,0-.3-.1-.5-.2a1,1,0,0,1-.4-.5,1.41,1.41,0,0,1-.1-.9,1.7,1.7,0,0,1,.1-.7,3.71,3.71,0,0,1,.2-.9c.1-.3.1-.6.2-.9a6.37,6.37,0,0,1,.2-.7l-1.3-.4-1.3-.4c0,.1-.1.2-.2.5s-.2.6-.3,1l-.3,1.2a4.87,4.87,0,0,0-.1,1.2,5.22,5.22,0,0,0,.4,2.1,4.35,4.35,0,0,0,.4.7,1.21,1.21,0,0,0,.5.5,3.53,3.53,0,0,0,1.3.8,4.15,4.15,0,0,0,1.6.3H113a4.81,4.81,0,0,0,3.3-1,3,3,0,0,0,.7.5c.3.1.5.2.8.3s.6.1.9.2h4.4a14.28,14.28,0,0,0,2.9-.3c.9-.2,1.9-.5,2.8-.8s1.7-.7,2.5-1a18,18,0,0,0,2-1.1c.6-.3,1-.6,1.4-.8l.6-.4-.3-2.3Z"/><rect class="cls-2" x="138.2" y="166.5" width="2.8" height="16.2"/><path class="cls-2" d="M153.8,180.2a5.27,5.27,0,0,0,.3-1.2v-.5a4.49,4.49,0,0,0-.7-1.8l-1.3-1.9a7.3,7.3,0,0,0-.9-1.3l-.6-.9-.3-.5-.2-.2v-.1l-.8-1.2-2.3,1.5,4.2,6.1a.76.76,0,0,1,.2.4v.5c-.2.3-.5.6-.8.6a4.1,4.1,0,0,1-1.1.1h-.6l-2-.3c-.7-.2-1.4-.4-2-.6l-.8,2.7,1.3.4.9.3c.3.1.6.1.9.2l.8.1h.8a8.81,8.81,0,0,0,1.7-.2,4.55,4.55,0,0,0,1.9-.8,2.34,2.34,0,0,0,.7-.7C153.5,180.8,153.6,180.5,153.8,180.2Z"/><polygon class="cls-2" points="165.1 184.4 163.2 186.3 165.1 188.3 167 186.4 165.1 184.4"/><path class="cls-2" d="M168.9,182.3a6.38,6.38,0,0,0,1.4-.8,4.48,4.48,0,0,0,1.4-3.4v-.9c0-.3-.1-.7-.1-1l-.2-1c-.1-.3-.1-.6-.2-.9a6.37,6.37,0,0,0-.2-.7.76.76,0,0,1-.1-.4l-2.6.8a4.33,4.33,0,0,1,.1.5,6.37,6.37,0,0,1,.2.7c.1.3.1.5.2.8s.1.6.2.8.1.5.1.8v.6a1.49,1.49,0,0,1-.2.9,2.18,2.18,0,0,1-.4.5c-.2.1-.3.2-.5.2h-5.3a.76.76,0,0,1-.4-.1,1.42,1.42,0,0,1-.6-.2,1.21,1.21,0,0,1-.5-.5,1.08,1.08,0,0,1-.2-.8v-3.4h-2.8v6.8a6.28,6.28,0,0,1-.3,1.9,2.88,2.88,0,0,1-2,2,5.84,5.84,0,0,1-1.9.2h-1.4v2.8h1.3a6.92,6.92,0,0,0,2.8-.5,5.71,5.71,0,0,0,2.1-1.3,5.58,5.58,0,0,0,1.4-2,7.71,7.71,0,0,0,.7-2.6,1.14,1.14,0,0,0,.8.3h5.6A2.19,2.19,0,0,0,168.9,182.3Z"/><rect class="cls-2" x="166.07" y="188.23" width="2.5" height="2.5" transform="translate(-84.97 173.78) rotate(-44.99)"/><rect class="cls-2" x="168.39" y="184.99" width="2.7" height="2.7" transform="translate(-82.02 173.96) rotate(-44.85)"/><path class="cls-2" d="M161.2,60.4H67.1a6.25,6.25,0,0,0-6.3,5.8l-.9,10.1H166.2l.8-9A6.38,6.38,0,0,0,161.2,60.4Z"/><path class="cls-2" d="M36.4,76.2H51.2A2.8,2.8,0,0,0,54,73.4a2.86,2.86,0,0,0-2.8-2.8H36.4a2.8,2.8,0,0,0,0,5.6Z"/><path class="cls-2" d="M45.8,95.1a2.8,2.8,0,0,0,2.8,2.8H73.7a4.91,4.91,0,0,1,4.9,4.9h0a4.91,4.91,0,0,1-4.9,4.9H36a3,3,0,0,0-3,3,3.08,3.08,0,0,0,3,3H56.6l-1.4,15.9a6.38,6.38,0,0,0,5.8,6.9h94.1a6.41,6.41,0,0,0,6.4-5.8l3.4-38.5H48.6A2.88,2.88,0,0,0,45.8,95.1Zm94.8,4.9h10l-.9,9.9h-10Z"/><polygon class="cls-2" points="26.3 240.3 34.1 240.3 38.1 199 30.3 199 26.3 240.3"/><path class="cls-2" d="M60,199H45l-4,41.3H58.3c2.5,0,16.8-1.1,18.6-21.5S60,199,60,199Zm-1.4,34.2c-2.8.2-6.6.1-9.1.1l2.6-27.2h3.5s14.3-1.7,13.6,11.8h0C68.6,231.2,63.3,232.9,58.6,233.2Z"/><path class="cls-2" d="M98.7,199H84.6l-4,41.3h7.8l1.3-13.4H96c3.7,0,16.5-.1,17.9-14.5S98.7,199,98.7,199ZM97,220.1H90.3l1.3-13.7h6.6s8.1-.6,7.4,6.5v.1C105.1,220.1,98.7,220.1,97,220.1Z"/><path class="cls-2" d="M134.3,209.9a21.09,21.09,0,0,0-15.8.8l-.5,6.1s14.8-5.3,15,3.8c0,0-18.6-3.3-19.6,10.4s23,11.7,25.5,2.9C141.2,225,142.9,213,134.3,209.9ZM125.6,234c-7.2.1-5.3-8.3.9-8.3h6.1V229S132.8,234,125.6,234Z"/><path class="cls-2" d="M163.8,209.5l-8.3,20.3-5.2-20.3h-7.8l8.4,28.8s-2.7,10.4-10.1,6.6v6.4a9.8,9.8,0,0,0,11.5-2.2c5.5-5.4,19.5-39.6,19.5-39.6Z"/></svg>